<svg xmlns="http://www.w3.org/2000/svg" viewBox="0 0 1200 1800" role="img" aria-label="Elegant floral wedding background">
  <defs>
    <linearGradient id="paper" x1="0" y1="0" x2="1" y2="1">
      <stop offset="0" stop-color="#f7f3ec"/>
      <stop offset="0.45" stop-color="#fffdf9"/>
      <stop offset="1" stop-color="#ece5dc"/>
    </linearGradient>
    <radialGradient id="rose" cx="50%" cy="50%" r="50%">
      <stop offset="0" stop-color="#ffffff"/>
      <stop offset="0.45" stop-color="#d8d0c8"/>
      <stop offset="1" stop-color="#7f7a76"/>
    </radialGradient>
    <filter id="softShadow" x="-20%" y="-20%" width="140%" height="140%">
      <feDropShadow dx="0" dy="18" stdDeviation="22" flood-color="#2d2a27" flood-opacity="0.16"/>
    </filter>
  </defs>
  <rect width="1200" height="1800" fill="url(#paper)"/>
  <path d="M115 290 L600 92 L1085 290 L1085 1510 L600 1710 L115 1510 Z" fill="#fffdf9" stroke="#d7d0c9" stroke-width="7" filter="url(#softShadow)"/>
  <path d="M160 322 L600 142 L1040 322 L1040 1478 L600 1658 L160 1478 Z" fill="none" stroke="#eee9e3" stroke-width="4"/>
  <g opacity="0.28" stroke="#2d2a27" stroke-width="2" fill="none">
    <path d="M268 760 C440 700 760 700 932 760"/>
    <path d="M268 1040 C440 1100 760 1100 932 1040"/>
  </g>
  <g transform="translate(20 55)" opacity="0.9">
    <g transform="translate(120 80) rotate(-16)">
      <circle cx="130" cy="130" r="100" fill="url(#rose)"/>
      <circle cx="130" cy="130" r="68" fill="none" stroke="#f7f3ec" stroke-width="20"/>
      <circle cx="130" cy="130" r="36" fill="none" stroke="#8a8580" stroke-width="12"/>
      <ellipse cx="286" cy="106" rx="82" ry="30" fill="#c8c1ba" transform="rotate(-23 286 106)"/>
      <ellipse cx="28" cy="236" rx="86" ry="32" fill="#b9b4ae" transform="rotate(-37 28 236)"/>
      <ellipse cx="262" cy="248" rx="78" ry="30" fill="#d9d3cc" transform="rotate(35 262 248)"/>
    </g>
    <g transform="translate(880 1390) rotate(166)">
      <circle cx="130" cy="130" r="100" fill="url(#rose)"/>
      <circle cx="130" cy="130" r="68" fill="none" stroke="#f7f3ec" stroke-width="20"/>
      <circle cx="130" cy="130" r="36" fill="none" stroke="#8a8580" stroke-width="12"/>
      <ellipse cx="286" cy="106" rx="82" ry="30" fill="#c8c1ba" transform="rotate(-23 286 106)"/>
      <ellipse cx="28" cy="236" rx="86" ry="32" fill="#b9b4ae" transform="rotate(-37 28 236)"/>
      <ellipse cx="262" cy="248" rx="78" ry="30" fill="#d9d3cc" transform="rotate(35 262 248)"/>
    </g>
  </g>
  <g opacity="0.26" fill="#8f4f55">
    <circle cx="136" cy="1240" r="7"/>
    <circle cx="164" cy="1274" r="5"/>
    <circle cx="1032" cy="520" r="7"/>
    <circle cx="1060" cy="556" r="5"/>
  </g>
</svg>
